<?xml version="1.0" standalone="no"?>
<!DOCTYPE svg PUBLIC "-//W3C//DTD SVG 20010904//EN"
 "http://www.w3.org/TR/2001/REC-SVG-20010904/DTD/svg10.dtd">
<svg version="1.0" xmlns="http://www.w3.org/2000/svg"
 width="1854.000000pt" height="1670.000000pt" viewBox="0 0 1854.000000 1670.000000"
 preserveAspectRatio="xMidYMid meet">

<g transform="translate(0.000000,1670.000000) scale(0.100000,-0.100000)"
fill="#fff" stroke="none">
<path d="M15985 14936 c-363 -63 -356 -60 -513 -190 -143 -118 -310 -284 -640
-636 -443 -471 -440 -469 -629 -563 -298 -150 -573 -237 -1258 -397 -236 -55
-533 -125 -660 -155 -126 -29 -270 -59 -320 -65 -177 -22 -764 -122 -965 -165
-261 -55 -391 -88 -492 -125 -213 -78 -515 -279 -726 -484 l-63 -61 21 60 c18
49 21 78 18 155 -4 112 -31 181 -98 253 l-41 45 20 109 c117 617 358 1114 725
1491 169 175 284 260 495 368 129 66 159 95 63 59 -74 -28 -260 -123 -337
-172 -228 -147 -450 -375 -618 -633 -198 -307 -365 -763 -413 -1128 -5 -44
-10 -52 -23 -46 -120 50 -212 54 -306 10 l-52 -23 -16 91 c-9 50 -32 147 -51
216 -210 764 -652 1329 -1246 1590 -96 42 -190 73 -190 62 0 -4 53 -31 118
-61 205 -94 366 -207 540 -380 365 -362 631 -878 752 -1458 l22 -101 -45 -55
c-88 -108 -114 -252 -69 -382 11 -33 19 -61 17 -63 -2 -2 -28 19 -59 47 -226
205 -509 379 -737 455 -224 74 -665 152 -1314 231 -208 26 -376 54 -650 110
-203 42 -489 100 -635 130 -547 110 -879 210 -1145 343 -60 30 -130 68 -155
85 -25 16 -229 213 -455 437 -415 411 -573 557 -722 667 -100 74 -134 87 -293
108 -69 9 -159 21 -200 27 -106 14 -242 5 -313 -22 -48 -18 -74 -38 -145 -112
-48 -50 -170 -158 -272 -242 -208 -170 -363 -318 -438 -419 -67 -90 -116 -191
-206 -422 -133 -341 -160 -453 -160 -655 0 -237 65 -483 195 -742 95 -189 135
-330 164 -572 9 -78 7 -467 -4 -651 -21 -341 -10 -585 35 -813 54 -272 145
-477 342 -774 161 -241 233 -360 407 -668 224 -398 310 -515 561 -760 211
-206 583 -511 784 -642 138 -90 474 -259 675 -338 219 -86 516 -183 719 -235
193 -49 192 -38 16 -113 -212 -90 -423 -153 -595 -178 -193 -29 -441 -133
-603 -254 -162 -119 -284 -281 -326 -430 -37 -134 -58 -374 -44 -510 20 -203
108 -361 304 -550 224 -216 469 -383 839 -576 171 -89 197 -106 262 -171 84
-86 124 -110 303 -187 294 -127 486 -238 609 -352 39 -36 272 -327 600 -749
295 -379 562 -716 595 -747 113 -109 262 -163 387 -140 177 33 271 123 394
377 137 285 244 597 544 1590 185 610 211 676 409 1022 165 287 364 585 440
656 l29 28 2 -82 c0 -45 6 -100 12 -121 5 -22 12 -110 14 -196 9 -382 89 -657
212 -733 108 -67 204 -29 276 108 72 139 97 278 103 576 2 119 8 236 14 260 5
23 10 77 10 120 l0 79 41 -44 c151 -159 539 -753 645 -983 57 -126 130 -332
319 -895 309 -921 437 -1240 592 -1475 70 -106 114 -147 203 -189 60 -29 73
-31 170 -31 98 0 109 2 170 32 74 36 162 107 214 173 32 41 342 463 835 1140
286 392 360 456 771 658 278 136 330 168 366 222 36 54 87 90 284 200 339 189
605 385 815 602 257 263 327 463 280 798 -45 320 -107 450 -289 608 -125 109
-287 200 -459 257 -101 33 -125 38 -342 70 -60 9 -175 37 -255 62 -152 47
-379 130 -393 143 -5 4 17 16 50 25 595 172 1086 384 1450 627 223 148 624
499 861 753 186 198 286 351 494 748 66 128 132 252 146 277 58 104 131 224
221 365 197 312 292 563 333 885 18 142 14 503 -8 730 -25 271 -26 688 -1 815
27 136 53 216 122 377 130 302 178 496 178 718 -1 229 -35 363 -175 685 -107
246 -133 299 -179 367 -69 103 -258 281 -474 448 -110 85 -243 195 -296 246
-70 66 -109 96 -145 109 -65 23 -243 29 -349 11z m452 -328 c73 -27 163 -114
198 -191 36 -78 59 -179 51 -222 -4 -20 -28 -77 -54 -128 -39 -77 -61 -106
-135 -177 -49 -47 -143 -138 -208 -203 -65 -65 -123 -116 -129 -112 -25 16 5
167 46 230 42 64 57 315 33 551 -15 145 -7 198 36 241 40 40 78 43 162 11z
m-14047 -213 c44 -47 48 -83 43 -337 -7 -279 2 -360 52 -459 35 -70 65 -159
65 -195 0 -12 -8 -25 -17 -28 -13 -5 -34 11 -80 63 -35 38 -115 112 -179 162
-125 101 -197 185 -246 288 -39 82 -45 138 -24 222 33 128 100 221 198 274 87
48 150 51 188 10z m13346 -84 c214 -99 262 -306 132 -570 -74 -149 -247 -309
-463 -429 -129 -71 -324 -155 -470 -203 -102 -34 -128 -39 -140 -29 -13 11 3
32 113 144 311 319 461 550 462 710 1 203 150 429 270 410 19 -3 63 -18 96
-33z m-12559 -223 c32 -32 62 -75 81 -117 29 -62 37 -96 61 -249 23 -148 157
-339 424 -606 182 -182 204 -215 135 -201 -78 16 -392 127 -488 172 -209 98
-390 226 -486 342 -59 70 -135 216 -153 293 -28 119 -4 230 68 310 54 61 108
96 181 119 49 15 59 15 90 3 19 -8 58 -38 87 -66z m13782 -237 c11 -11 25 -38
31 -61 27 -100 -45 -168 -178 -170 -43 0 -57 5 -77 25 -14 13 -25 29 -25 34 0
25 23 65 62 107 72 78 148 104 187 65z m-15134 -215 c69 -29 155 -126 155
-175 0 -32 -46 -61 -99 -61 -136 0 -208 68 -181 170 20 75 57 94 125 66z
m15447 -223 c12 -11 18 -30 18 -62 0 -83 -51 -124 -154 -122 -148 2 -198 54
-121 126 64 61 216 95 257 58z m-737 -47 c89 -38 80 -166 -11 -166 -19 0 -71
-14 -114 -31 -44 -17 -86 -29 -95 -26 -49 19 28 163 116 216 40 25 58 26 104
7z m-624 -23 c57 -34 73 -112 44 -211 -20 -66 -58 -95 -243 -188 -77 -38 -155
-85 -183 -110 -54 -48 -85 -54 -144 -30 -42 18 -55 42 -55 101 0 76 26 110
150 197 36 25 100 82 143 128 114 119 212 157 288 113z m-14318 -163 c80 -25
127 -65 127 -109 0 -43 -43 -63 -145 -68 -68 -4 -85 -1 -113 16 -36 23 -52 55
-52 107 0 74 61 92 183 54z m684 -29 c61 -38 143 -161 129 -196 -8 -21 -38
-19 -118 10 -38 14 -86 25 -107 25 -47 0 -75 28 -75 75 0 37 15 60 59 87 39
23 72 23 112 -1z m685 -7 c18 -9 71 -53 118 -99 47 -45 126 -109 175 -142 107
-72 129 -104 127 -181 -2 -64 -18 -87 -73 -103 -48 -15 -76 -7 -121 33 -38 35
-47 40 -249 136 -142 68 -170 94 -195 179 -36 125 22 210 138 199 26 -3 62
-12 80 -22z m14297 -220 c74 -44 105 -166 59 -234 -45 -67 -169 -109 -228 -78
-33 17 -60 73 -60 123 0 70 66 178 120 198 30 11 83 7 109 -9z m-609 -19 c60
-31 66 -95 20 -213 -84 -218 -149 -242 -364 -138 -110 54 -162 68 -213 60 -74
-12 -133 70 -83 114 31 26 518 191 568 191 24 1 56 -6 72 -14z m-2287 -194
c117 -32 168 -81 248 -240 54 -107 48 -165 -27 -257 -24 -29 -44 -59 -44 -65
0 -19 70 -3 178 40 125 50 386 134 528 171 162 42 277 60 386 60 84 0 109 -4
200 -36 342 -118 497 -248 553 -465 54 -207 -79 -463 -350 -674 -218 -170
-358 -227 -633 -259 -121 -14 -234 -21 -782 -46 -236 -11 -378 -27 -495 -57
-102 -25 -347 -22 -525 7 -511 83 -1127 273 -1699 525 -305 134 -602 224 -986
299 -211 41 -388 69 -537 87 -81 9 -108 15 -108 26 0 33 357 170 591 227 271
66 438 90 724 106 505 28 884 98 1320 245 204 68 208 69 405 100 199 30 376
74 473 116 159 68 186 78 253 92 100 22 245 21 327 -2z m-12785 -15 c121 -63
151 -263 47 -313 -31 -15 -43 -15 -93 -5 -131 27 -187 134 -131 250 36 73 111
102 177 68z m717 -25 c300 -91 387 -120 410 -135 32 -21 32 -56 2 -91 -20 -24
-31 -27 -96 -30 -66 -3 -84 -9 -185 -59 -137 -69 -200 -84 -250 -61 -42 20
-87 86 -127 188 -47 120 -35 196 34 216 54 16 77 12 212 -28z m2450 -110 c39
-11 104 -34 145 -51 107 -44 273 -85 446 -110 283 -40 339 -51 446 -85 402
-130 901 -215 1267 -215 432 0 893 -79 1253 -214 171 -64 192 -76 167 -91 -5
-4 -101 -22 -211 -41 -547 -94 -1034 -231 -1307 -368 -427 -216 -1056 -449
-1511 -561 -365 -90 -625 -114 -810 -76 -140 29 -276 38 -630 40 -580 3 -806
24 -970 88 -158 63 -359 200 -477 326 -78 83 -115 137 -161 234 -32 67 -37 89
-40 168 -4 77 -1 101 20 161 65 186 172 279 468 405 139 60 149 62 245 67 179
7 514 -64 862 -183 167 -57 253 -78 253 -59 0 3 -22 33 -50 66 -86 103 -89
151 -14 298 67 131 124 181 247 215 72 21 268 13 362 -14z m12140 -376 c30
-29 33 -84 9 -166 -24 -79 -14 -185 25 -284 32 -78 32 -80 16 -122 -34 -87
-129 -124 -218 -85 -90 40 -99 94 -39 230 59 130 65 156 60 239 -9 141 21 213
89 213 23 0 42 -8 58 -25z m-14934 -205 c38 -21 51 -66 53 -189 l1 -116 54
-110 c60 -124 69 -178 36 -215 -26 -29 -92 -59 -129 -60 -45 0 -113 37 -137
76 -26 43 -26 86 0 144 11 25 25 83 30 129 10 75 9 91 -9 149 -26 84 -26 142
1 176 22 28 64 35 100 16z m14927 -849 c72 -37 108 -97 97 -163 -4 -21 -30
-73 -57 -116 -66 -100 -84 -142 -97 -229 -18 -119 -66 -228 -122 -280 -36 -33
-109 -63 -155 -63 -23 0 -71 9 -106 20 -72 22 -112 56 -165 140 -19 30 -46 66
-59 80 -36 39 -54 93 -54 164 0 189 173 381 404 447 89 26 264 26 314 0z
m-14658 -217 c102 -26 180 -72 262 -154 99 -99 138 -175 138 -271 0 -82 -12
-120 -60 -184 -21 -27 -50 -72 -65 -98 -35 -61 -79 -94 -156 -118 -76 -24
-133 -24 -184 0 -86 40 -164 154 -186 276 -22 113 -39 163 -74 211 -57 80 -93
145 -100 181 -14 79 61 158 165 174 59 9 190 0 260 -17z m12972 -112 c130 -35
250 -106 351 -208 73 -73 88 -102 95 -179 12 -161 -114 -382 -363 -631 -66
-66 -151 -141 -190 -166 -222 -146 -494 -235 -747 -245 -148 -6 -226 6 -308
47 -79 40 -149 56 -345 80 -415 50 -687 141 -900 300 -114 85 -253 218 -349
332 -100 119 -216 277 -216 296 0 16 15 15 129 -8 217 -44 542 -44 856 0 355
50 688 132 1139 280 339 111 430 129 626 125 107 -2 165 -8 222 -23z m-3657
-108 c75 -18 184 -69 267 -125 140 -94 341 -325 472 -543 68 -112 72 -121 57
-145 -8 -13 -22 -12 -103 2 -51 9 -154 19 -228 23 -201 9 -667 -28 -885 -71
-226 -44 -423 -19 -537 68 -30 23 -57 61 -97 135 -72 133 -122 199 -226 303
-47 46 -85 87 -85 91 0 20 47 41 212 96 281 93 570 159 793 181 112 11 281 4
360 -15z m-7403 -58 c68 -14 204 -51 303 -81 314 -98 565 -158 870 -209 474
-79 910 -79 1179 0 65 18 76 18 76 -4 0 -21 -84 -149 -178 -272 -105 -137
-322 -346 -437 -423 -219 -145 -421 -212 -812 -272 -197 -30 -252 -44 -343
-90 -137 -69 -327 -78 -573 -30 -163 33 -374 119 -508 208 -192 127 -410 370
-506 564 -39 78 -47 104 -51 166 -6 99 8 135 81 214 126 135 282 218 474 253
82 15 290 3 425 -24z m3678 -2 c202 -30 447 -88 692 -165 131 -41 132 -46 29
-154 -92 -97 -176 -219 -221 -320 -36 -81 -86 -137 -151 -170 -94 -48 -277
-67 -439 -46 -301 41 -450 51 -722 51 -221 0 -397 -15 -477 -41 -27 -9 -36 -8
-49 5 -16 15 -14 22 20 89 21 40 63 113 94 162 231 365 481 568 746 605 85 12
348 3 478 -16z m8261 -461 c18 -45 -3 -154 -41 -217 -60 -98 -175 -230 -266
-304 -150 -122 -391 -227 -418 -183 -10 16 36 92 78 129 19 16 67 47 106 68
127 66 257 204 403 426 32 48 66 92 75 97 30 18 52 12 63 -16z m-6073 -70
c232 -166 533 -462 778 -768 44 -55 169 -217 278 -359 254 -334 369 -470 453
-538 260 -212 720 -417 1333 -594 85 -24 161 -51 168 -58 25 -24 4 -55 -59
-87 -107 -54 -442 -201 -513 -225 -290 -99 -692 -72 -1056 72 -245 97 -418
205 -572 355 -57 55 -131 120 -165 145 -119 86 -308 159 -491 188 -46 7 -89
19 -95 25 -8 8 -6 35 9 103 22 106 24 283 5 387 -7 35 -28 109 -48 165 -55
157 -72 221 -93 351 -30 180 -50 437 -50 654 0 167 2 197 17 213 9 10 20 18
26 18 5 0 39 -21 75 -47z m-1097 10 c20 -23 20 -645 1 -788 -20 -148 -48 -276
-86 -395 -50 -153 -60 -218 -59 -375 1 -107 6 -158 22 -218 29 -109 32 -105
-99 -128 -234 -40 -433 -147 -610 -329 -119 -122 -195 -183 -326 -263 -216
-131 -502 -233 -752 -267 -144 -20 -394 -9 -512 23 -99 27 -299 106 -505 199
-113 51 -120 56 -123 85 l-3 30 233 77 c460 151 827 315 1078 480 207 137 278
216 581 639 205 288 376 515 490 652 179 216 586 595 639 595 10 0 24 -7 31
-17z m-6123 -117 c28 -15 69 -65 142 -176 24 -36 93 -115 154 -175 94 -95 125
-118 205 -159 132 -68 219 -162 182 -199 -29 -29 -221 45 -367 143 -151 101
-326 304 -359 414 -17 58 -19 119 -5 147 13 23 14 23 48 5z m13785 -105 c48
-23 77 -61 77 -99 0 -11 -18 -42 -40 -68 -28 -34 -47 -71 -61 -119 -11 -38
-26 -81 -34 -95 -19 -35 -71 -51 -126 -39 -85 20 -115 75 -106 198 3 42 14
101 25 131 15 46 27 61 68 88 43 30 55 33 100 30 27 -2 71 -15 97 -27z m-4745
-122 c269 -30 554 -138 847 -323 343 -217 683 -335 1085 -377 227 -24 607 0
802 51 114 29 114 31 -1 -230 -178 -405 -200 -450 -251 -523 -267 -387 -745
-504 -1376 -337 -418 111 -885 351 -1100 565 -44 44 -201 208 -349 365 -148
157 -338 356 -422 444 -84 87 -153 166 -153 176 0 30 203 117 365 156 181 43
363 54 553 33z m-4348 -75 c160 -27 376 -99 431 -143 l22 -17 -54 -60 c-30
-33 -133 -147 -229 -254 -96 -106 -287 -319 -425 -474 -272 -306 -334 -361
-548 -490 -328 -198 -723 -349 -1049 -401 -196 -31 -457 -16 -618 37 -240 78
-446 264 -554 500 -18 40 -86 182 -150 316 -64 133 -116 249 -116 257 0 19 16
19 111 0 416 -79 892 -44 1295 95 132 46 415 189 540 272 298 201 478 284 735
342 215 48 403 54 609 20z m-5022 -14 c36 -26 44 -40 66 -110 30 -93 34 -195
12 -239 -21 -40 -60 -62 -121 -68 -47 -5 -56 -3 -78 19 -13 13 -36 61 -51 105
-19 56 -39 95 -67 126 -64 73 -50 129 45 173 74 35 141 33 194 -6z m13560
-326 c54 -38 66 -121 31 -214 -24 -64 -27 -150 -8 -264 14 -91 8 -182 -18
-233 -13 -29 -33 -46 -80 -71 -41 -22 -75 -49 -98 -80 -44 -56 -115 -109 -168
-123 -52 -14 -114 9 -157 57 -45 51 -90 147 -90 191 0 80 83 353 145 479 37
74 106 135 235 209 122 69 165 79 208 49z m-12984 -240 c115 -61 200 -130 228
-185 33 -64 90 -204 123 -301 45 -131 52 -195 30 -256 -43 -112 -122 -192
-192 -192 -49 0 -134 50 -198 116 -36 37 -79 71 -106 82 -97 42 -114 93 -105
327 6 158 5 174 -15 225 -43 111 -34 195 25 231 45 29 83 20 210 -47z m11949
-155 c41 -19 49 -53 59 -254 6 -118 15 -213 25 -250 9 -33 19 -92 21 -131 7
-127 -41 -220 -183 -359 -77 -76 -87 -90 -159 -239 -111 -226 -176 -290 -326
-322 -58 -12 -91 -13 -161 -5 -190 21 -215 87 -80 213 60 55 183 152 262 206
121 82 224 206 267 322 22 60 106 417 147 623 27 134 43 179 72 196 23 13 27
13 56 0z m-11033 -189 c11 -16 35 -94 55 -178 57 -247 104 -431 141 -543 52
-162 141 -277 292 -375 216 -141 362 -271 362 -323 0 -102 -289 -137 -443 -53
-78 42 -137 116 -218 274 -70 137 -78 147 -181 249 -87 85 -114 119 -140 175
-40 86 -49 184 -24 274 12 40 18 115 21 246 6 243 11 266 59 284 30 11 54 1
76 -30z m6183 -965 c433 -399 994 -693 1752 -916 517 -153 941 -391 1236 -695
148 -153 221 -269 272 -430 73 -232 76 -423 8 -622 -50 -145 -100 -193 -206
-200 -75 -5 -134 12 -250 72 -168 86 -359 253 -865 757 -294 293 -445 461
-505 560 -66 112 -154 173 -292 205 -189 42 -256 80 -337 188 -68 90 -182 197
-251 237 -87 50 -182 49 -154 -2 5 -10 16 -19 23 -19 8 0 51 -19 97 -42 166
-83 282 -234 344 -446 48 -166 130 -342 276 -588 45 -76 112 -202 149 -279 92
-191 218 -358 546 -726 153 -171 198 -235 242 -342 112 -267 61 -519 -133
-664 -89 -67 -260 -155 -375 -194 -168 -56 -269 -34 -438 93 -160 121 -213
240 -262 596 -11 84 -30 181 -40 215 -11 34 -40 168 -65 297 -93 478 -147 738
-176 850 -104 393 -348 842 -691 1274 -95 118 -108 140 -108 173 0 21 11 139
25 263 14 124 30 275 36 335 12 106 20 135 41 135 5 0 51 -38 101 -85z m-1258
43 c12 -51 95 -670 95 -707 0 -30 -9 -51 -37 -88 -109 -141 -142 -188 -213
-293 -260 -390 -442 -787 -519 -1135 -14 -62 -112 -642 -146 -865 -14 -91 -34
-196 -45 -235 -10 -38 -30 -160 -44 -270 -37 -300 -78 -408 -192 -514 -214
-201 -342 -217 -646 -81 -146 65 -209 104 -279 173 -176 174 -185 460 -23 737
18 30 107 144 197 253 305 365 432 546 487 691 17 45 83 176 146 292 134 246
189 369 234 514 60 199 88 270 135 340 63 95 142 163 253 217 68 33 92 50 92
64 0 29 -73 25 -137 -7 -66 -32 -175 -133 -233 -214 -100 -141 -154 -179 -321
-226 -186 -52 -270 -111 -335 -234 -55 -105 -248 -325 -632 -724 -415 -431
-550 -551 -712 -635 -237 -123 -363 -86 -440 128 -109 299 -55 661 136 921
158 216 393 416 697 594 186 109 324 167 756 317 421 146 757 303 1061 497
182 116 474 353 594 481 35 37 63 40 71 9z m4685 -365 c25 -8 60 -26 78 -40
40 -30 43 -77 7 -138 -63 -108 -239 -180 -466 -192 -123 -6 -193 4 -261 38
-129 65 -68 206 121 278 199 75 393 96 521 54z m-7911 -109 c131 -19 239 -54
308 -99 62 -41 83 -70 90 -125 5 -36 2 -43 -30 -73 -57 -54 -129 -72 -287 -71
-148 0 -229 16 -337 64 -76 35 -147 103 -164 159 -11 37 -10 45 7 69 11 15 40
37 65 50 87 44 182 51 348 26z m7346 -639 c29 -13 142 -51 252 -84 415 -125
505 -168 553 -262 28 -53 27 -147 -1 -182 -25 -33 -88 -51 -155 -44 -70 7
-105 27 -156 89 -134 164 -286 288 -474 388 -152 80 -152 79 -124 102 29 24
43 23 105 -7z m-6957 -106 c2 -11 -34 -37 -120 -85 -184 -103 -355 -246 -443
-369 -54 -75 -80 -100 -127 -120 -50 -20 -144 -19 -187 3 -75 37 -77 166 -5
251 50 58 170 114 458 211 132 44 260 92 285 105 54 28 134 31 139 4z m4125
-449 c90 -79 157 -220 286 -607 49 -147 108 -313 131 -368 108 -256 128 -328
116 -408 -7 -46 -40 -88 -55 -71 -4 5 -30 65 -56 134 -100 259 -158 360 -289
500 -117 126 -172 200 -222 305 -77 160 -90 267 -50 437 26 112 71 138 139 78z
m-1312 10 c74 -40 109 -299 60 -445 -49 -144 -114 -250 -241 -394 -43 -50 -92
-110 -109 -135 -51 -74 -130 -245 -181 -393 -26 -76 -51 -138 -56 -137 -4 0
-17 13 -29 28 -16 22 -20 42 -19 104 0 80 16 132 108 368 19 49 53 153 76 230
150 509 235 704 333 764 38 23 33 23 58 10z m5469 -56 c30 -8 111 -18 179 -21
140 -7 152 -12 171 -83 24 -90 -22 -168 -117 -196 -50 -15 -67 -15 -194 0 -77
9 -173 16 -213 16 -66 0 -78 3 -106 26 -70 59 -79 127 -26 196 32 42 71 68
121 81 30 8 123 -1 185 -19z m-9472 -140 c61 -30 112 -93 112 -138 0 -39 -37
-101 -76 -126 -21 -15 -47 -20 -99 -20 -38 0 -117 -7 -175 -15 -216 -30 -289
-14 -331 71 -25 53 -21 122 10 164 17 23 26 26 123 32 58 3 138 15 179 26 142
39 188 40 257 6z m10220 -274 c56 -34 74 -75 69 -153 -8 -117 -88 -215 -186
-225 -73 -7 -116 5 -155 41 -38 36 -52 85 -42 142 9 45 119 183 160 201 46 20
116 17 154 -6z m-11031 -158 c47 -26 149 -146 160 -190 44 -177 -198 -267
-322 -120 -67 80 -86 194 -42 259 43 64 136 88 204 51z m10419 -313 c63 -16
108 -62 128 -128 44 -149 -11 -210 -197 -219 -127 -6 -196 9 -241 52 -44 41
-53 86 -32 160 20 67 68 119 123 134 53 14 165 14 219 1z m-9691 -162 c81 -44
120 -177 72 -247 -40 -60 -78 -75 -207 -78 -221 -7 -286 41 -256 188 27 128
103 174 271 164 55 -4 92 -12 120 -27z m8913 -290 c2 -15 -12 -72 -31 -125
-20 -54 -45 -145 -57 -203 -27 -128 -66 -196 -132 -228 -25 -11 -54 -21 -66
-21 -64 0 -159 72 -193 145 -37 79 -15 190 49 258 15 16 69 49 121 73 51 24
116 58 144 75 104 64 160 73 165 26z m-8168 -168 c215 -104 213 -103 244 -147
80 -112 58 -243 -56 -335 -55 -44 -133 -50 -188 -13 -60 40 -88 90 -120 221
-16 65 -45 158 -65 207 -38 96 -42 117 -23 136 18 18 45 9 208 -69z m8543 31
c109 -41 160 -145 106 -214 -16 -20 -29 -26 -58 -26 -58 0 -122 26 -164 68
-47 46 -61 92 -43 137 25 59 69 69 159 35z m-9017 -120 c39 -15 53 -39 54 -86
0 -83 -86 -157 -198 -171 -49 -5 -51 -5 -72 28 -49 79 7 180 121 220 64 22 61
22 95 9z m8060 -414 c83 -38 127 -118 127 -231 0 -143 -70 -227 -243 -287
-115 -40 -310 -34 -403 14 -49 25 -82 91 -75 152 11 98 74 173 196 233 47 23
95 56 122 85 25 26 61 51 80 57 49 14 135 4 196 -23z m-6925 -132 c33 -30 88
-67 140 -92 97 -47 158 -105 177 -170 45 -150 -41 -236 -248 -249 -99 -6 -202
13 -288 52 -80 37 -114 65 -147 126 -25 46 -29 65 -30 129 0 64 5 84 30 135
48 94 110 127 236 123 l77 -3 53 -51z m6175 -470 c91 -52 174 -218 174 -349 0
-77 -26 -133 -93 -205 -29 -31 -71 -77 -94 -103 -73 -80 -175 -86 -211 -11
-15 32 -14 42 2 142 12 71 18 170 19 294 2 172 4 189 23 215 24 32 77 54 114
46 14 -3 43 -16 66 -29z m-5523 -74 c41 -32 51 -80 52 -260 1 -108 8 -193 19
-245 23 -112 21 -158 -7 -190 -18 -22 -31 -27 -69 -27 -25 0 -57 6 -70 12 -29
15 -180 172 -215 223 -82 119 1 403 142 489 41 25 115 24 148 -2z m4921 -235
c103 -49 176 -211 196 -435 6 -58 19 -136 30 -175 51 -177 -4 -303 -135 -312
-45 -4 -53 -1 -83 27 -60 58 -72 95 -72 228 0 136 -4 153 -71 263 -64 107 -91
180 -97 259 -3 56 -1 69 19 94 46 58 147 82 213 51z m-4324 -66 c60 -27 78
-45 91 -91 15 -58 -9 -140 -88 -298 l-68 -135 2 -129 c3 -148 -9 -189 -71
-243 -60 -54 -130 -42 -194 31 -49 56 -54 135 -18 286 8 36 15 99 16 141 0 47
9 113 24 171 38 151 86 231 158 267 53 26 90 26 148 0z"/>
</g>
</svg>
