<?xml version="1.0" standalone="no"?>
<!DOCTYPE svg PUBLIC "-//W3C//DTD SVG 20010904//EN"
 "http://www.w3.org/TR/2001/REC-SVG-20010904/DTD/svg10.dtd">
<svg version="1.0" xmlns="http://www.w3.org/2000/svg"
 width="2261.000000pt" height="903.000000pt" viewBox="0 0 2261.000000 903.000000"
 preserveAspectRatio="xMidYMid meet">

<g transform="translate(0.000000,903.000000) scale(0.100000,-0.100000)"
fill="#fff" stroke="none">
<path d="M20415 8104 c-217 -23 -392 -67 -534 -134 -208 -100 -336 -221 -431
-409 -91 -183 -114 -482 -54 -716 26 -99 81 -199 152 -276 181 -196 381 -272
937 -359 354 -55 486 -97 575 -182 60 -58 82 -114 83 -207 2 -253 -237 -392
-668 -392 -330 0 -650 91 -897 257 -45 30 -82 53 -83 52 -1 -2 -68 -109 -148
-238 l-147 -235 32 -28 c54 -46 207 -134 313 -181 288 -126 590 -187 935 -187
197 1 323 13 480 47 561 124 853 497 802 1023 -14 139 -46 251 -97 335 -154
256 -399 380 -949 481 -428 78 -550 119 -648 217 -58 58 -80 116 -81 207 -2
175 108 286 342 343 106 27 382 32 496 9 166 -32 379 -116 574 -227 19 -11 35
-15 37 -9 2 6 62 116 134 245 l129 235 -21 17 c-41 31 -252 136 -355 177 -114
45 -283 92 -418 117 -87 15 -403 27 -490 18z"/>
<path d="M1160 6490 l0 -1590 290 0 290 0 -2 1090 c-2 599 0 1086 4 1082 3 -4
148 -412 321 -907 l315 -900 273 0 274 0 12 35 c97 290 625 1825 628 1829 3 2
5 -498 5 -1112 l0 -1117 285 0 285 0 0 1590 0 1590 -403 0 -403 0 -339 -1060
c-186 -583 -341 -1060 -344 -1060 -3 0 -25 60 -48 133 -73 232 -406 1273 -568
1780 l-67 207 -404 0 -404 0 0 -1590z"/>
<path d="M5811 8063 c-5 -10 -43 -101 -84 -203 -41 -102 -95 -234 -120 -295
-25 -60 -169 -414 -320 -785 -151 -371 -382 -936 -512 -1255 -130 -319 -241
-590 -246 -602 l-9 -23 338 0 337 0 99 265 99 265 628 0 627 0 29 -77 c17 -43
61 -162 99 -265 l69 -188 339 0 c266 0 337 3 333 13 -3 6 -32 77 -65 157 -33
80 -99 242 -147 360 -48 118 -102 251 -120 295 -125 306 -600 1470 -755 1851
-104 254 -193 471 -199 483 -11 20 -19 21 -211 21 -180 0 -200 -2 -209 -17z
m417 -1512 c111 -297 202 -544 202 -550 0 -8 -125 -11 -410 -11 -225 0 -410 3
-410 8 0 14 405 1092 411 1092 3 0 96 -243 207 -539z"/>
<path d="M7390 7798 l0 -283 443 2 c243 1 452 0 465 -4 l22 -5 0 -1304 0
-1304 310 0 310 0 0 1305 0 1305 23 5 c12 3 221 5 465 3 l442 -3 0 283 0 282
-1240 0 -1240 0 0 -282z"/>
<path d="M10258 6515 c-1 -861 -2 -1575 -2 -1587 l-1 -23 313 -3 312 -2 0 645
0 645 620 0 620 0 0 -645 0 -645 315 0 315 0 0 1590 0 1590 -315 0 -315 0 0
-663 0 -664 -22 3 c-13 1 -292 3 -620 3 l-598 1 0 660 0 660 -310 0 -310 0 -2
-1565z"/>
<path d="M13507 8073 c-4 -4 -7 -719 -7 -1590 l1 -1583 1138 0 1139 0 1 280 0
280 -824 0 -825 0 0 370 0 370 695 0 695 0 0 280 0 280 -695 0 -695 0 2 378 3
377 820 2 820 3 0 277 0 278 -1131 3 c-622 1 -1134 -1 -1137 -5z"/>
<path d="M16323 6953 c3 -1104 3 -1130 24 -1218 85 -365 262 -596 567 -741
185 -87 374 -124 641 -124 279 0 463 38 660 134 126 62 217 128 293 211 148
161 234 356 274 615 10 66 13 327 13 1165 l0 1080 -312 3 -312 2 -3 -1092 -3
-1093 -24 -70 c-84 -251 -279 -376 -586 -376 -321 0 -534 150 -589 414 -24
115 -26 189 -26 1230 l0 987 -310 0 -311 0 4 -1127z"/>
<path d="M7575 3985 c-405 -66 -652 -272 -711 -595 -42 -232 9 -434 141 -564
132 -130 256 -176 710 -267 165 -33 336 -69 380 -81 105 -27 208 -75 272 -126
165 -132 163 -420 -5 -588 -167 -167 -547 -235 -912 -164 -180 34 -361 111
-491 207 -32 23 -63 44 -68 46 -5 1 -45 -42 -90 -97 -63 -77 -79 -102 -70
-112 6 -8 41 -33 78 -57 275 -180 559 -257 939 -257 380 1 655 91 834 275 130
132 194 320 181 530 -9 161 -55 268 -157 371 -139 139 -290 196 -776 294 -404
81 -511 119 -611 219 -75 75 -93 128 -87 259 3 84 8 107 38 170 97 211 372
328 725 308 185 -10 379 -72 565 -181 42 -25 81 -45 86 -45 5 1 25 22 45 48
20 26 56 70 78 99 l42 52 -48 31 c-132 85 -342 171 -513 212 -115 27 -443 34
-575 13z"/>
<path d="M1160 2671 c0 -721 3 -1311 8 -1313 4 -2 67 -2 140 0 l132 4 0 1309
0 1309 -140 0 -140 0 0 -1309z"/>
<path d="M2192 2670 l3 -1310 900 -1 900 0 3 121 3 120 -766 0 -765 0 0 1190
0 1190 -140 0 -140 0 2 -1310z"/>
<path d="M4343 3033 c3 -916 4 -951 24 -1038 108 -472 437 -684 1028 -662 425
16 689 159 822 446 96 205 105 328 101 1391 l-3 805 -140 0 -140 0 -2 -910
c-1 -612 -6 -930 -13 -970 -47 -255 -180 -405 -422 -476 -112 -33 -358 -38
-493 -10 -251 52 -398 191 -461 436 -16 64 -18 145 -21 1003 l-4 932 -140 0
-140 0 4 -947z"/>
<path d="M8940 3855 l0 -125 425 0 425 0 0 -1187 0 -1188 138 0 137 1 3 1187
2 1187 425 0 425 0 0 125 0 125 -990 0 -990 0 0 -125z"/>
<path d="M11302 2669 l3 -1313 137 0 138 -1 2 553 3 552 414 0 c228 0 418 -3
421 -7 4 -5 122 -222 263 -483 141 -261 273 -506 294 -543 l38 -68 160 -1
c130 -1 160 2 159 13 -1 8 -141 263 -312 567 -172 304 -312 556 -312 561 0 4
24 15 53 24 86 27 177 87 263 173 89 88 148 190 181 314 25 92 24 339 -1 430
-71 257 -257 435 -534 513 -75 21 -97 21 -725 25 l-647 3 2 -1312z m1298 1047
c177 -58 286 -168 335 -339 10 -36 17 -94 17 -155 0 -254 -141 -442 -374 -497
-51 -12 -154 -15 -530 -15 l-468 0 0 516 0 516 483 -4 c430 -4 488 -6 537 -22z"/>
<path d="M14528 3938 c-20 -50 -241 -610 -321 -813 -30 -77 -161 -408 -290
-735 -330 -835 -407 -1031 -407 -1033 0 -1 71 -2 157 -1 124 1 158 4 161 15 3
8 56 149 118 313 63 164 114 300 114 302 0 2 294 4 653 4 l652 0 115 -306 c63
-168 118 -310 121 -316 8 -13 309 -17 309 -4 0 5 -21 61 -46 125 -136 345
-576 1458 -630 1596 -34 88 -127 324 -207 525 l-144 365 -169 3 -169 2 -17
-42z m331 -623 c77 -203 201 -527 274 -720 74 -192 133 -351 132 -353 -4 -6
-1105 -7 -1105 -1 0 4 474 1255 539 1423 7 16 13 27 15 25 3 -2 68 -170 145
-374z"/>
</g>
</svg>
